<?xml version="1.0" encoding="UTF-8"?>
<svg width="49px" height="49px" viewBox="0 0 49 49" version="1.1" xmlns="http://www.w3.org/2000/svg" xmlns:xlink="http://www.w3.org/1999/xlink">
    <!-- Generator: Sketch 64 (93537) - https://sketch.com -->
    <title>swift-logo</title>
    <desc>Created with Sketch.</desc>
    <g id="Page-1" stroke="none" stroke-width="1" fill="none" fill-rule="evenodd">
        <g id="Artboard" fill-rule="nonzero">
            <g id="swift-logo">
                <path d="M48.5610812,13.450975 C48.5591911,12.9625758 48.5519949,12.4742116 48.5394937,11.9859687 C48.5100562,10.9222937 48.4482375,9.84880625 48.2588562,8.79690625 C48.0783371,7.74177003 47.7413256,6.7194908 47.2589625,5.7638625 C46.2818898,3.84394321 44.721614,2.28298028 42.802125,1.3050625 C41.8467043,0.823239697 40.8247812,0.486567304 39.7700625,0.30615 C38.7162,0.11676875 37.6427125,0.05396875 36.5790375,0.0255125 C36.0893937,0.011775 35.6017125,0.0058875 35.11305,0.00294375 C34.5331312,0 33.9532125,0 33.3723125,0 L15.1917125,0 C14.6108125,0 14.031875,0 13.4519562,0.00294375 C12.9632938,0.00686875 12.4746312,0.01275625 11.9859687,0.0255125 C11.72005,0.03238125 11.45315,0.04219375 11.18625,0.05495 C10.3865312,0.09321875 9.58485,0.16386875 8.79494375,0.30615 C8.0073297,0.44318859 7.23682863,0.664929718 6.49685625,0.9675125 C5.25709563,1.48070793 4.13046854,2.23290406 3.1812125,3.1812125 C2.424095,3.93787007 1.79094586,4.80911243 1.3050625,5.76288125 C0.8105125,6.73431875 0.49749375,7.72734375 0.30615,8.795925 C0.11676875,9.84880625 0.05396875,10.9222937 0.0255125,11.9849875 C0.011775,12.4756125 0.0058875,12.9632938 0.00294375,13.450975 C0,14.031875 0,14.6117937 0,15.1917125 L0,33.3723125 C0,33.9532125 0,34.5331312 0.00294375,35.11305 C0.00686875,35.6017125 0.01275625,36.090375 0.0255125,36.5780563 C0.05495,37.6427125 0.11676875,38.7162 0.30615,39.7671188 C0.486284109,40.8228473 0.822963062,41.8457824 1.3050625,42.802125 C2.28231462,44.7225845 3.843403,46.2836729 5.7638625,47.260925 C6.73431875,47.7544938 7.72734375,48.0675125 8.795925,48.2598375 C9.847825,48.4492188 10.9222937,48.5120188 11.9859687,48.540475 C12.4746312,48.5532313 12.9632937,48.5591188 13.4519562,48.5620625 C14.0308937,48.5659875 14.6108125,48.5651153 15.1917125,48.5651153 L33.3723125,48.5651153 C33.95125,48.5651153 34.53215,48.5659875 35.1120687,48.5620625 C35.6007312,48.5591188 36.0884125,48.5532313 36.577075,48.540475 C37.6417312,48.5110375 38.7162,48.4492188 39.7681,48.2598375 C40.8228187,48.0794202 41.8447418,47.7427478 42.8001625,47.260925 C44.7201367,46.2833399 46.2808188,44.7223143 47.2579813,42.802125 C47.7525313,41.8306875 48.06555,40.8366813 48.257875,39.7690813 C48.4472563,38.7171812 48.5100563,37.6436938 48.5385125,36.5790375 C48.5512688,36.0913563 48.5571563,35.6026938 48.5601,35.1140313 C48.564025,34.5341125 48.5631528,33.9541938 48.5631528,33.3732938 L48.5631528,15.1917125 C48.5631528,14.6117937 48.5631528,14.031875 48.5601,13.450975 L48.5610812,13.450975 Z" id="Path" fill="#F05138"></path>
                <path d="M38.4816812,29.9771875 L38.4787375,29.9742437 C38.531725,29.79075 38.586675,29.6092187 38.6347562,29.4218 C40.6502437,21.39125 35.7302562,11.896675 27.4063125,6.8981875 C31.0546,11.8436875 32.6667937,17.8332375 31.2331875,23.07115 C31.105625,23.5392062 30.95255,23.9876375 30.7827937,24.4233125 C30.5456395,24.2705563 30.3027686,24.1268631 30.0547062,23.9925437 C30.0547062,23.9925437 21.7729563,18.8802312 12.7984438,9.83605 C12.5629438,9.5985875 17.584,17.0129125 23.2831,23.0338625 C20.5984,21.5276437 13.1153875,16.0826875 8.37889375,11.747525 C8.960775,12.7189625 9.6535375,13.6531125 10.4140063,14.5529187 C14.369425,19.5690687 19.5288375,25.7587937 25.70875,30.5119687 C21.3667188,33.1691937 15.2309625,33.3752562 9.1217,30.5149125 C7.62601518,29.8124639 6.20347423,28.9638039 4.87485,27.981325 C7.60661144,32.3200287 11.585859,35.7318385 16.2907125,37.7692937 C22.0722375,40.2538187 27.8204,40.0850437 32.1015938,37.8105062 L32.09865,37.8154125 C32.118275,37.8026563 32.1428063,37.7899 32.1634125,37.7761625 C32.3390563,37.6829437 32.5137188,37.5858 32.683475,37.4847313 C34.7411563,36.4171313 38.8045125,35.3338313 40.98485,39.5767563 C41.5196313,40.6159 42.6549375,35.1120688 38.4826625,29.9781688 L38.4816812,29.9771875 Z" id="Path" fill="#FFFFFF"></path>
            </g>
        </g>
    </g>
</svg>