<?xml version="1.0" encoding="UTF-8"?>
<svg width="90px" height="90px" viewBox="0 0 90 90" version="1.1" xmlns="http://www.w3.org/2000/svg" xmlns:xlink="http://www.w3.org/1999/xlink">
    <!-- Generator: Sketch 64 (93537) - https://sketch.com -->
    <title>swift-logo</title>
    <desc>Created with Sketch.</desc>
    <g id="Page-1" stroke="none" stroke-width="1" fill="none" fill-rule="evenodd">
        <g id="Artboard" fill-rule="nonzero">
            <g id="swift-logo">
                <path d="M89.1938227,24.7058724 C89.190351,23.8088127 89.1771334,22.9118172 89.1541722,22.0150446 C89.1001033,20.0613559 88.9865587,18.0896441 88.6387156,16.1575829 C88.3071498,14.2195776 87.6881491,12.3419219 86.802176,10.5866862 C85.0075528,7.06030385 82.1417399,4.19322908 78.616148,2.39705357 C76.8612936,1.51207291 74.984292,0.893695047 73.0470536,0.562316327 C71.1113878,0.214473214 69.139676,0.0991262755 67.1859872,0.0468596939 C66.2866416,0.021627551 65.3909005,0.0108137755 64.4933571,0.00540688776 C63.4282003,0 62.3630434,0 61.2960842,0 L27.9031454,0 C26.8361862,0 25.7728316,0 24.7076747,0.00540688776 C23.8101314,0.0126160714 22.912588,0.0234298469 22.0150446,0.0468596939 C21.5266224,0.0594757653 21.036398,0.0774987245 20.5461735,0.100928571 C19.0773023,0.171218112 17.6048265,0.300983418 16.1539783,0.562316327 C14.7073403,0.814019859 13.2921342,1.22129948 11.9330013,1.77706378 C9.65588994,2.71966762 7.58657487,4.10125235 5.84304337,5.84304337 C4.45241938,7.23282258 3.28949239,8.83306365 2.39705357,10.5848839 C1.48869643,12.3691569 0.913764031,14.1930804 0.562316327,16.1557806 C0.214473214,18.0896441 0.0991262755,20.0613559 0.0468596939,22.0132423 C0.021627551,22.9143903 0.0108137755,23.8101314 0.00540688776,24.7058724 C0,25.7728316 0,26.8379885 0,27.9031454 L0,61.2960842 C0,62.3630434 0,63.4282003 0.00540688776,64.4933571 C0.0126160714,65.3909005 0.0234298469,66.2884439 0.0468596939,67.1841849 C0.100928571,69.139676 0.214473214,71.1113878 0.562316327,73.0416467 C0.893174895,74.9807399 1.51156481,76.8596004 2.39705357,78.616148 C4.19200644,82.1435226 7.05931163,85.0108277 10.5866862,86.8057806 C12.3691569,87.7123355 14.1930804,88.2872679 16.1557806,88.6405179 C18.0878418,88.988361 20.0613559,89.1037079 22.0150446,89.1559745 C22.912588,89.1794043 23.8101314,89.1902181 24.7076747,89.195625 C25.7710293,89.2028342 26.8361862,89.2012321 27.9031454,89.2012321 L61.2960842,89.2012321 C62.3594388,89.2012321 63.426398,89.2028342 64.4915548,89.195625 C65.3890982,89.1902181 66.2848393,89.1794043 67.1823827,89.1559745 C69.1378737,89.1019056 71.1113878,88.988361 73.043449,88.6405179 C74.9806874,88.3091391 76.857689,87.6907613 78.6125434,86.8057806 C82.1390266,85.0102162 85.0055855,82.1430263 86.8003737,78.616148 C87.7087309,76.831875 88.2836633,75.0061492 88.6369133,73.0452513 C88.9847564,71.1131901 89.1001033,69.1414783 89.1523699,67.1859872 C89.1757997,66.2902462 89.1866135,65.3927028 89.1920204,64.4951594 C89.1992296,63.4300026 89.1976276,62.3648457 89.1976276,61.2978865 L89.1976276,27.9031454 C89.1976276,26.8379885 89.1976276,25.7728316 89.1920204,24.7058724 L89.1938227,24.7058724 Z" id="Path" fill="#F05138"></path>
                <path d="M70.680639,55.0601403 L70.6752321,55.0547334 C70.7725561,54.7177041 70.8734847,54.3842793 70.9617972,54.0400408 C74.663713,39.290051 65.6270013,21.8510357 50.338125,12.6701403 C57.0390612,21.7537117 60.0002334,32.754926 57.3670791,42.3755816 C57.1327806,43.2352768 56.8516224,44.058926 56.5398253,44.8591454 C56.1042358,44.5785728 55.6581463,44.3146466 55.2025217,44.0679375 C55.2025217,44.0679375 39.9911441,34.6779758 23.5073457,18.0662143 C23.0747946,17.6300587 32.2971429,31.2482066 42.7648776,42.3070944 C37.8337959,39.5405702 24.0894872,29.5396301 15.3898048,21.5770867 C16.4585663,23.3613597 17.7309872,25.0771454 19.1277666,26.7298508 C26.3928214,35.9431875 35.8692934,47.3120702 47.2201531,56.0423916 C39.2449936,60.9230089 27.9752372,61.3014911 16.7541429,56.0477985 C14.0069667,54.7575868 11.3941363,53.1988234 8.95380612,51.3942704 C13.9713271,59.3633181 21.2801492,65.6299074 29.9217168,69.3721722 C40.5408444,73.9355855 51.0986939,73.6255906 58.962111,69.4478686 L58.9567041,69.4568801 C58.99275,69.4334503 59.0378074,69.4100204 59.0756556,69.3847883 C59.3982666,69.2135702 59.7190753,69.0351429 60.0308724,68.8495064 C63.810287,66.8886084 71.2735944,64.8988737 75.2782959,72.6920013 C76.2605472,74.6006327 78.3458036,64.4915548 70.6824413,55.0619426 L70.680639,55.0601403 Z" id="Path" fill="#FFFFFF"></path>
            </g>
        </g>
    </g>
</svg>