<?xml version="1.0" encoding="UTF-8"?>
<svg width="250px" height="250px" viewBox="0 0 250 250" version="1.1" xmlns="http://www.w3.org/2000/svg" xmlns:xlink="http://www.w3.org/1999/xlink">
    <!-- Generator: Sketch 64 (93537) - https://sketch.com -->
    <title>favicon</title>
    <desc>Created with Sketch.</desc>
    <g id="favicon" stroke="none" stroke-width="1" fill="none" fill-rule="evenodd">
        <rect fill="#F05138" x="0" y="0" width="250" height="250"></rect>
        <g id="websocket" transform="translate(13.000000, 41.000000)" fill="#FFFFFF" fill-rule="nonzero">
            <path d="M169.136719,127.248146 L197.068359,127.248146 L197.068359,60.1196793 L165.599121,28.6219255 L145.84834,48.3911559 L169.136719,71.7012884 L169.136719,127.248146 L169.136719,127.248146 Z M197.142188,141.26308 L99.7136719,141.26308 L76.4244141,117.953827 L86.3006836,108.069212 L105.535547,127.322043 L145.110938,127.322043 L106.125293,88.2260847 L116.074512,78.2675724 L155.060156,117.290513 L155.060156,77.6763957 L135.899121,58.4974623 L145.700684,48.6858645 L97.2817383,0 L0,0 L27.8578125,27.8838344 L27.8578125,27.9577314 L85.6371094,27.9577314 L106.051465,48.3911559 L76.2038086,78.2666927 L55.7894531,57.8332683 L55.7894531,41.9735457 L27.8578125,41.9735457 L27.8578125,69.4148773 L76.2038086,117.806033 L56.5259766,137.501366 L87.9952148,169 L225,169 L197.142188,141.26308 Z" id="Shape"></path>
        </g>
    </g>
</svg>