<?xml version="1.0" encoding="UTF-8"?>
<svg width="52px" height="52px" viewBox="0 0 52 52" version="1.1" xmlns="http://www.w3.org/2000/svg" xmlns:xlink="http://www.w3.org/1999/xlink">
    <title>github</title>
    <g id="github" stroke="none" stroke-width="1" fill="none" fill-rule="evenodd">
        <path d="M0,25.6329304 C0,36.9582303 7.44985303,46.5665468 17.7805341,49.9559445 C19.079942,50.1932235 19.5569944,49.399888 19.5569944,48.7228574 C19.5569944,48.1116197 19.5328835,46.0924131 19.5216891,43.9505345 C12.2884041,45.5011256 10.7620948,40.9261815 10.7620948,40.9261815 C9.57936659,37.9633767 7.87523908,37.1755593 7.87523908,37.1755593 C5.51624094,35.5846435 8.05305734,35.6173277 8.05305734,35.6173277 C10.6639288,35.7981522 12.0386835,38.2588083 12.0386835,38.2588083 C14.3576402,42.1775208 18.1211012,41.0446088 19.6047858,40.3896506 C19.8381453,38.7329419 20.5119603,37.6021522 21.2555247,36.9620506 C15.4805216,36.313884 9.40972883,34.1159752 9.40972883,24.2941501 C9.40972883,21.4956155 10.4254026,19.2089924 12.0886276,17.4139062 C11.8186711,16.7682864 10.9287187,14.161188 12.3405009,10.6304416 C12.3405009,10.6304416 14.5238336,9.94152584 19.4924115,13.2579146 C21.5663838,12.6899729 23.7906189,12.4051532 26.0002153,12.3953904 C28.2098116,12.4051532 30.435769,12.6899729 32.5136162,13.2579146 C37.4761664,9.94152584 39.6564852,10.6304416 39.6564852,10.6304416 C41.0717119,14.161188 40.1813289,16.7682864 39.9113724,17.4139062 C41.5784724,19.2089924 42.5872573,21.4956155 42.5872573,24.2941501 C42.5872573,34.1393211 36.5048396,36.3070925 30.7151977,36.941676 C31.6477748,37.7371339 32.4787415,39.2970633 32.4787415,41.6885307 C32.4787415,45.1182531 32.4486028,47.8785854 32.4486028,48.7228574 C32.4486028,49.4049816 32.9166135,50.2042598 34.2345353,49.9525487 C44.5596191,46.5593308 52,36.9544101 52,25.6329304 C52,11.475987 40.3591472,0 26.0002153,0 C11.642575,0 0,11.475987 0,25.6329304 Z" id="Fill-5" fill="#FFFFFF"></path>
    </g>
</svg>